<svg width="41" height="41" viewBox="0 0 41 41" fill="none" xmlns="http://www.w3.org/2000/svg">
<path d="M20.5 3.84375C17.2057 3.84375 13.9854 4.82062 11.2463 6.65083C8.50718 8.48105 6.37231 11.0824 5.11164 14.1259C3.85097 17.1695 3.52112 20.5185 4.1638 23.7495C4.80649 26.9805 6.39284 29.9483 8.72226 32.2777C11.0517 34.6072 14.0195 36.1935 17.2505 36.8362C20.4815 37.4789 23.8305 37.149 26.8741 35.8884C29.9176 34.6277 32.519 32.4928 34.3492 29.7537C36.1794 27.0146 37.1563 23.7943 37.1563 20.5C37.1516 16.0839 35.3952 11.85 32.2726 8.7274C29.15 5.60476 24.9161 3.84841 20.5 3.84375ZM9.60938 11.5585C11.4076 13.7354 12.5038 16.4062 12.7532 19.2188H6.46551C6.71834 16.407 7.8141 13.7371 9.60938 11.5585ZM21.7813 19.2188V6.46551C24.6536 6.72565 27.376 7.86483 29.5777 9.72789C27.3007 12.3962 25.933 15.7206 25.6731 19.2188H21.7813ZM19.2188 19.2188H15.327C15.067 15.7206 13.6993 12.3962 11.4224 9.72789C13.624 7.86483 16.3464 6.72565 19.2188 6.46551V19.2188ZM12.7532 21.7812C12.5038 24.5938 11.4076 27.2646 9.60938 29.4415C7.8141 27.2629 6.71834 24.593 6.46551 21.7812H12.7532ZM15.327 21.7812H19.2188V34.5345C16.3464 34.2743 13.624 33.1352 11.4224 31.2721C13.699 28.6036 15.0667 25.2793 15.327 21.7812ZM21.7813 21.7812H25.6731C25.9334 25.2793 27.301 28.6036 29.5777 31.2721C27.376 33.1352 24.6536 34.2743 21.7813 34.5345V21.7812ZM28.2468 21.7812H34.5345C34.2817 24.593 33.1859 27.2629 31.3906 29.4415C29.5924 27.2646 28.4962 24.5938 28.2468 21.7812ZM28.2468 19.2188C28.4962 16.4062 29.5924 13.7354 31.3906 11.5585C33.1859 13.7371 34.2817 16.407 34.5345 19.2188H28.2468Z" fill="#015C6F"/>
</svg>
