<svg width="50" height="50" viewBox="0 0 50 50" fill="none" xmlns="http://www.w3.org/2000/svg">
<path d="M23.9583 37.5L27.0833 29.1667L16.9125 25L23.1625 17.7083L29.4125 22.9167H36.7042M29.1667 14.5833C30.2717 14.5833 31.3315 14.1443 32.1129 13.3629C32.8943 12.5815 33.3333 11.5217 33.3333 10.4167C33.3333 9.3116 32.8943 8.25179 32.1129 7.47039C31.3315 6.68899 30.2717 6.25 29.1667 6.25C28.0616 6.25 27.0018 6.68899 26.2204 7.47039C25.439 8.25179 25 9.3116 25 10.4167C25 11.5217 25.439 12.5815 26.2204 13.3629C27.0018 14.1443 28.0616 14.5833 29.1667 14.5833ZM37.5 43.75C39.1576 43.75 40.7473 43.0915 41.9194 41.9194C43.0915 40.7473 43.75 39.1576 43.75 37.5C43.75 35.8424 43.0915 34.2527 41.9194 33.0806C40.7473 31.9085 39.1576 31.25 37.5 31.25C35.8424 31.25 34.2527 31.9085 33.0806 33.0806C31.9085 34.2527 31.25 35.8424 31.25 37.5C31.25 39.1576 31.9085 40.7473 33.0806 41.9194C34.2527 43.0915 35.8424 43.75 37.5 43.75ZM12.5 43.75C14.1576 43.75 15.7473 43.0915 16.9194 41.9194C18.0915 40.7473 18.75 39.1576 18.75 37.5C18.75 35.8424 18.0915 34.2527 16.9194 33.0806C15.7473 31.9085 14.1576 31.25 12.5 31.25C10.8424 31.25 9.25269 31.9085 8.08058 33.0806C6.90848 34.2527 6.25 35.8424 6.25 37.5C6.25 39.1576 6.90848 40.7473 8.08058 41.9194C9.25269 43.0915 10.8424 43.75 12.5 43.75Z" stroke="#015C6F" stroke-width="2.5625" stroke-linecap="round" stroke-linejoin="round"/>
</svg>
