<svg width="41" height="41" viewBox="0 0 41 41" fill="none" xmlns="http://www.w3.org/2000/svg">
<path d="M6.40625 5.125V35.875H8.96875V25.625H34.5938V5.125H6.40625ZM8.96875 7.6875H12.8125V11.5312H16.6562V7.6875H20.5V11.5312H24.3438V7.6875H28.1875V11.5312H32.0312V15.375H28.1875V19.2188H32.0312V23.0625H28.1875V19.2188H24.3438V23.0625H20.5V19.2188H16.6562V23.0625H12.8125V19.2188H8.96875V15.375H12.8125V11.5312H8.96875V7.6875ZM12.8125 15.375V19.2188H16.6562V15.375H12.8125ZM16.6562 15.375H20.5V11.5312H16.6562V15.375ZM20.5 15.375V19.2188H24.3438V15.375H20.5ZM24.3438 15.375H28.1875V11.5312H24.3438V15.375Z" fill="#015C6F"/>
</svg>
