<svg width="428" height="500" viewBox="0 0 428 500" fill="none" xmlns="http://www.w3.org/2000/svg">
<rect width="500" height="500" transform="translate(-36)" fill="white"/>
<path d="M232.235 263.063C221.463 276.925 190.859 304.754 176.528 317.543C173.893 319.894 172.576 321.069 171.033 321.532C169.694 321.934 168.206 321.934 166.867 321.532C165.325 321.069 164.008 319.894 161.373 317.543C147.042 304.754 116.438 276.925 105.665 263.063C91.403 244.71 93.9599 218.765 112.122 203.248C130.283 187.73 154.455 192.288 168.95 209.235C183.446 192.288 207.305 187.893 225.779 203.248C230.869 207.478 234.727 212.524 237.347 218M194.375 255.375H187.125L176.25 277.125L161.75 233.625L150.875 255.375H143.625" stroke="#70C031" stroke-width="6" stroke-linecap="round" stroke-linejoin="round"/>
<path d="M250.784 246.888H240.308L238.508 252H234.224L243.188 226.944H247.94L256.904 252H252.584L250.784 246.888ZM249.632 243.54L245.564 231.912L241.46 243.54H249.632ZM259.434 242.064C259.434 240.024 259.842 238.236 260.658 236.7C261.498 235.14 262.65 233.94 264.114 233.1C265.578 232.26 267.258 231.84 269.154 231.84C271.554 231.84 273.534 232.416 275.094 233.568C276.678 234.696 277.746 236.316 278.298 238.428H273.87C273.51 237.444 272.934 236.676 272.142 236.124C271.35 235.572 270.354 235.296 269.154 235.296C267.474 235.296 266.13 235.896 265.122 237.096C264.138 238.272 263.646 239.928 263.646 242.064C263.646 244.2 264.138 245.868 265.122 247.068C266.13 248.268 267.474 248.868 269.154 248.868C271.53 248.868 273.102 247.824 273.87 245.736H278.298C277.722 247.752 276.642 249.36 275.058 250.56C273.474 251.736 271.506 252.324 269.154 252.324C267.258 252.324 265.578 251.904 264.114 251.064C262.65 250.2 261.498 249 260.658 247.464C259.842 245.904 259.434 244.104 259.434 242.064ZM287.176 235.512V246.492C287.176 247.236 287.344 247.776 287.68 248.112C288.04 248.424 288.64 248.58 289.48 248.58H292V252H288.76C286.912 252 285.496 251.568 284.512 250.704C283.528 249.84 283.036 248.436 283.036 246.492V235.512H280.696V232.164H283.036V227.232H287.176V232.164H292V235.512H287.176ZM297.87 229.536C297.126 229.536 296.502 229.284 295.998 228.78C295.494 228.276 295.242 227.652 295.242 226.908C295.242 226.164 295.494 225.54 295.998 225.036C296.502 224.532 297.126 224.28 297.87 224.28C298.59 224.28 299.202 224.532 299.706 225.036C300.21 225.54 300.462 226.164 300.462 226.908C300.462 227.652 300.21 228.276 299.706 228.78C299.202 229.284 298.59 229.536 297.87 229.536ZM299.886 232.164V252H295.782V232.164H299.886ZM312.942 248.328L318.558 232.164H322.914L315.354 252H310.458L302.934 232.164H307.326L312.942 248.328ZM344.196 241.596C344.196 242.34 344.148 243.012 344.052 243.612H328.896C329.016 245.196 329.604 246.468 330.66 247.428C331.716 248.388 333.012 248.868 334.548 248.868C336.756 248.868 338.316 247.944 339.228 246.096H343.656C343.056 247.92 341.964 249.42 340.38 250.596C338.82 251.748 336.876 252.324 334.548 252.324C332.652 252.324 330.948 251.904 329.436 251.064C327.948 250.2 326.772 249 325.908 247.464C325.068 245.904 324.648 244.104 324.648 242.064C324.648 240.024 325.056 238.236 325.872 236.7C326.712 235.14 327.876 233.94 329.364 233.1C330.876 232.26 332.604 231.84 334.548 231.84C336.42 231.84 338.088 232.248 339.552 233.064C341.016 233.88 342.156 235.032 342.972 236.52C343.788 237.984 344.196 239.676 344.196 241.596ZM339.912 240.3C339.888 238.788 339.348 237.576 338.292 236.664C337.236 235.752 335.928 235.296 334.368 235.296C332.952 235.296 331.74 235.752 330.732 236.664C329.724 237.552 329.124 238.764 328.932 240.3H339.912Z" fill="#70C031"/>
</svg>
