<svg width="41" height="41" viewBox="0 0 41 41" fill="none" xmlns="http://www.w3.org/2000/svg">
<path d="M35.4479 7.68752C35.4479 8.82022 34.998 9.90652 34.197 10.7075C33.3961 11.5084 32.3098 11.9584 31.1771 11.9584C30.0444 11.9584 28.9581 11.5084 28.1571 10.7075C27.3562 9.90652 26.9062 8.82022 26.9062 7.68752C26.9062 6.55482 27.3562 5.46852 28.1571 4.66759C28.9581 3.86665 30.0444 3.41669 31.1771 3.41669C32.3098 3.41669 33.3961 3.86665 34.197 4.66759C34.998 5.46852 35.4479 6.55482 35.4479 7.68752Z" fill="#70C031"/>
<path fill-rule="evenodd" clip-rule="evenodd" d="M16.745 10.1304C17.1525 10.0686 17.5648 10.044 17.9768 10.057C18.1134 10.0638 18.2672 10.074 18.4431 10.0911C22.5141 10.5148 25.5327 13.5693 27.5451 16.5862L27.6528 16.7468C28.1598 17.5072 28.8467 18.1307 29.6525 18.5619C30.4583 18.9931 31.3581 19.2187 32.2721 19.2187H35.4479C35.7877 19.2187 36.1136 19.3537 36.3539 19.594C36.5941 19.8343 36.7291 20.1602 36.7291 20.5C36.7291 20.8398 36.5941 21.1657 36.3539 21.406C36.1136 21.6463 35.7877 21.7812 35.4479 21.7812H32.2704C30.9346 21.7812 29.6195 21.4514 28.4417 20.8211C27.264 20.1908 26.2601 19.2795 25.519 18.1681L25.4131 18.0075C24.9582 17.3198 24.4583 16.663 23.9166 16.0413L20.6981 20.0644C19.967 20.9766 19.4784 21.5916 19.1487 22.0973C18.8275 22.5859 18.737 22.8575 18.713 23.0642C18.672 23.4059 18.7165 23.7527 18.8378 24.0738C18.9129 24.2686 19.0684 24.5112 19.4972 24.9058C19.9413 25.3158 20.5666 25.7907 21.4993 26.4945L21.6616 26.6192C22.8916 27.552 23.7458 28.1977 24.3352 29.0587C24.6717 29.549 24.9365 30.0837 25.1261 30.6475C25.4558 31.6383 25.4558 32.7077 25.4558 34.2521V37.5833C25.4558 37.9231 25.3208 38.249 25.0806 38.4893C24.8403 38.7296 24.5144 38.8646 24.1746 38.8646C23.8348 38.8646 23.5089 38.7296 23.2686 38.4893C23.0283 38.249 22.8933 37.9231 22.8933 37.5833V34.4571C22.8933 32.6292 22.8763 32.0056 22.6952 31.459C22.5824 31.1208 22.4231 30.8 22.222 30.5057C21.8974 30.0308 21.4088 29.643 19.9499 28.5377L19.902 28.5018C19.0308 27.8424 18.3082 27.294 17.7632 26.7918C17.1926 26.2673 16.7194 25.707 16.4444 24.9878C16.1746 24.2806 16.0796 23.5187 16.1676 22.767C16.2565 22.0016 16.5793 21.3405 17.0047 20.693C17.4096 20.0746 17.9768 19.364 18.6584 18.5115L22.0477 14.2765C20.8741 13.3831 19.5809 12.7886 18.18 12.6434C18.0755 12.6323 17.9707 12.6244 17.8657 12.6195C17.6084 12.6135 17.3512 12.6306 17.097 12.6707C15.2776 12.9235 13.4548 13.9349 9.49488 16.1847L7.04171 17.577C6.7463 17.7451 6.39622 17.789 6.06848 17.699C5.74073 17.6089 5.46218 17.3924 5.29408 17.097C5.12599 16.8016 5.08214 16.4515 5.17216 16.1238C5.26219 15.796 5.47872 15.5175 5.77413 15.3494L8.22729 13.9571L8.48696 13.8085C12.1086 11.7516 14.379 10.4601 16.7468 10.1338M15.7679 28.0594C16.0288 28.2769 16.1926 28.5891 16.2233 28.9274C16.2541 29.2657 16.1493 29.6024 15.9319 29.8634L14.2235 31.9151L14.0578 32.1132C12.9611 33.4304 12.1565 34.399 11.0324 34.9252C9.90829 35.4513 8.64925 35.4513 6.93238 35.4496H4.69788C4.35807 35.4496 4.03218 35.3146 3.7919 35.0744C3.55161 34.8341 3.41663 34.5082 3.41663 34.1684C3.41663 33.8286 3.55161 33.5027 3.7919 33.2624C4.03218 33.0221 4.35807 32.8871 4.69788 32.8871H6.67613C8.76371 32.8871 9.40263 32.8581 9.94417 32.6052C10.4874 32.3507 10.9179 31.8775 12.2538 30.2751L13.9622 28.2234C14.0699 28.0939 14.2021 27.987 14.3512 27.9087C14.5003 27.8304 14.6633 27.7823 14.831 27.7671C14.9987 27.7518 15.1678 27.7698 15.3285 27.82C15.4893 27.8701 15.6386 27.9515 15.7679 28.0594Z" fill="#70C031"/>
</svg>
