<svg width="41" height="41" viewBox="0 0 41 41" fill="none" xmlns="http://www.w3.org/2000/svg">
<path d="M28.922 29.2468L27.5554 26.9234L30.0495 19.458L32.4583 18.6551L34.1666 19.9363V20.1755C34.1666 20.2951 34.2179 20.3976 34.2179 20.5001C34.2179 23.8655 33.0904 26.838 30.8525 29.4005L28.922 29.2468ZM16.6562 25.6251L14.3158 18.7405L20.5 14.4013L26.6841 18.7405L24.3437 25.6251H16.6562ZM20.5 34.218C18.9966 34.218 17.5787 33.9788 16.2291 33.5005L15.0504 30.9209L16.1779 29.0417H24.9075L25.9495 30.9209L24.7708 33.5005C23.4212 33.9788 22.0033 34.218 20.5 34.218ZM10.1475 29.4005C9.24204 28.3413 8.45621 26.9234 7.78996 25.198C7.12371 23.4555 6.78204 21.8838 6.78204 20.5001C6.78204 20.3976 6.83329 20.2951 6.83329 20.1755V19.9363L8.54163 18.6551L10.9504 19.458L13.4445 26.9234L12.0779 29.2468L10.1475 29.4005ZM18.7916 9.03716V11.4288L11.9583 16.1609L9.66913 15.4434L8.95163 13.1201C9.70329 11.9584 10.8137 10.7967 12.2829 9.66925C13.752 8.54175 15.1529 7.80716 16.4854 7.43133L18.7916 9.03716ZM24.5145 7.43133C25.847 7.80716 27.2479 8.54175 28.717 9.66925C30.1862 10.7967 31.2966 11.9584 32.0483 13.1201L31.3308 15.4434L29.0416 16.178L22.2083 11.4459V9.03716L24.5145 7.43133ZM8.42204 8.42216C5.12496 11.7705 3.41663 15.8022 3.41663 20.5001C3.41663 25.198 5.12496 29.2297 8.42204 32.578C11.7191 35.9263 15.802 37.5834 20.5 37.5834C25.1979 37.5834 29.2295 35.8751 32.5779 32.578C35.9262 29.2809 37.5833 25.198 37.5833 20.5001C37.5833 15.8022 35.875 11.7705 32.5779 8.42216C29.2808 5.07383 25.1979 3.41675 20.5 3.41675C15.802 3.41675 11.7704 5.12508 8.42204 8.42216Z" fill="#015C6F"/>
</svg>
