<svg width="50" height="50" viewBox="0 0 50 50" fill="none" xmlns="http://www.w3.org/2000/svg">
<path d="M37.5 31.25C39.7102 31.25 41.8298 32.128 43.3926 33.6908C44.9554 35.2536 45.8334 37.3732 45.8334 39.5833C45.8334 41.7935 44.9554 43.9131 43.3926 45.4759C41.8298 47.0387 39.7102 47.9167 37.5 47.9167C35.2899 47.9167 33.1703 47.0387 31.6075 45.4759C30.0447 43.9131 29.1667 41.7935 29.1667 39.5833C29.1667 37.3732 30.0447 35.2536 31.6075 33.6908C33.1703 32.128 35.2899 31.25 37.5 31.25ZM37.5 35.4167C36.395 35.4167 35.3352 35.8557 34.5538 36.6371C33.7724 37.4185 33.3334 38.4783 33.3334 39.5833C33.3334 40.6884 33.7724 41.7482 34.5538 42.5296C35.3352 43.311 36.395 43.75 37.5 43.75C38.6051 43.75 39.6649 43.311 40.4463 42.5296C41.2277 41.7482 41.6667 40.6884 41.6667 39.5833C41.6667 38.4783 41.2277 37.4185 40.4463 36.6371C39.6649 35.8557 38.6051 35.4167 37.5 35.4167ZM12.6042 30.2917C12.6042 30.2917 15.5417 27.3333 15.5625 21.4583C14.8125 16.8958 16.6042 11.5417 20.7084 7.45835C26.8125 1.35418 35.7084 0.35418 40.625 5.20835C45.4792 10.125 44.4792 19.0208 38.375 25.125C34.2917 29.2292 28.9375 31.0208 24.375 30.2708C18.5 30.2917 15.5417 33.2292 15.5417 33.2292L6.70837 42.0625L3.77087 39.125L12.6042 30.2917ZM37.6459 8.18751C34.375 4.93751 28.125 5.91668 23.6459 10.4167C19.1875 14.875 18.1875 21.1458 21.4375 24.3958C24.7084 27.6458 30.9584 26.6458 35.4167 22.1875C39.9167 17.7083 40.8959 11.4583 37.6459 8.18751Z" fill="#015C6F"/>
</svg>
